#N canvas 826 283 1378 774 10;
#N canvas 0 22 450 300 (subpatch) 0;
#X array \$0-sample 197592 float 0;
#X coords 0 1 197591 -1 200 50 1 0 0;
#X restore 87 86 graph;
#N canvas 1080 534 779 326 write 0;
#X obj 45 227 coll \$0-data;
#C restore;
#N canvas 815 424 450 300 listdrip 0;
#X obj 59 19 inlet;
#X obj 59 43 list split 1;
#X obj 60 77 t b f;
#X obj 103 93 list;
#X obj 87 136 outlet;
#X connect 0 0 1 0;
#X connect 1 0 2 0;
#X connect 1 1 3 1;
#X connect 2 0 3 0;
#X connect 2 1 4 0;
#X connect 3 0 1 0;
#X restore 45 124 pd listdrip;
#X msg 246 194 clear;
#X obj 42 174 f;
#X obj 72 174 + 1;
#X msg 98 145 0;
#X obj 45 199 pack f f;
#X obj 45 148 t b f;
#X obj 80 100 t a b b;
#X obj 79 24 inlet;
#X text 163 37 hierarchy profile;
#X msg 77 62 6 1 2 1 3 1 2 1 4 1 2 1 3 1 2 1 5 1 2 1 3 1 2 1 4 1 2
1 3 1 2 1;
#X msg 77 43 bang;
#X connect 1 0 7 0;
#X connect 2 0 0 0;
#X connect 3 0 4 0;
#X connect 3 0 6 0;
#X connect 4 0 3 1;
#X connect 5 0 3 1;
#X connect 6 0 0 0;
#X connect 7 0 3 0;
#X connect 7 1 6 1;
#X connect 8 0 1 0;
#X connect 8 1 5 0;
#X connect 8 2 2 0;
#X connect 9 0 12 0;
#X connect 11 0 8 0;
#X connect 12 0 11 0;
#X restore 337 60 pd write hierarchy in coll;
#N canvas 950 397 681 465 loadsample 0;
#X obj 149 99 soundfiler;
#X obj 149 53 \$0;
#X msg 149 33 bang;
#X msg 273 136 32;
#X obj 124 180 until;
#X obj 124 209 f;
#X obj 149 209 + 1;
#X obj 151 279 *;
#X msg 245 171 0;
#X obj 100 355 coll \$0-data;
#C restore;
#X obj 149 119 t b f b b;
#X obj 108 9 inlet;
#X msg 100 336 merge \$1 \$2 \$3 \$4;
#X obj 185 284 f;
#X obj 124 233 t f f b;
#X obj 213 256 t f f;
#X obj 100 314 pack f f f 0;
#X obj 110 30 t a b;
#X obj 89 74 pack s f;
#X msg 150 80 read -resize loops/\$1.wav \$2-sample;
#X obj 240 296 outlet;
#X obj 44 51 symbol;
#X msg 246 134 16;
#X obj 213 235 / 16;
#X obj 154 153 f;
#X obj 273 116 loadbang;
#X obj 413 -41 openpanel;
#X symbolatom 451 -16 10 0 0 0 - - -;
#X obj 467 27 \$0;
#X msg 467 7 bang;
#X obj 428 4 t a b;
#X obj 407 48 pack s f;
#X obj 362 25 symbol;
#X msg 407 75 read -resize \$1 \$2-sample;
#X obj 302 -54 del 500;
#X obj 278 -71 bng 15 250 50 0 empty empty empty 17 7 0 10 -262144
-1 -1;
#X obj 207 -88 inlet;
#X connect 0 0 10 0;
#X connect 1 0 18 1;
#X connect 2 0 1 0;
#X connect 3 0 24 0;
#X connect 4 0 5 0;
#X connect 5 0 6 0;
#X connect 5 0 14 0;
#X connect 6 0 5 1;
#X connect 7 0 16 1;
#X connect 8 0 5 1;
#X connect 10 0 24 0;
#X connect 10 1 23 0;
#X connect 10 3 8 0;
#X connect 11 0 17 0;
#X connect 12 0 9 0;
#X connect 13 0 16 2;
#X connect 14 0 16 0;
#X connect 14 1 7 0;
#X connect 14 2 13 0;
#X connect 15 0 7 1;
#X connect 15 1 13 1;
#X connect 15 1 20 0;
#X connect 16 0 12 0;
#X connect 17 0 21 0;
#X connect 17 1 2 0;
#X connect 18 0 19 0;
#X connect 19 0 0 0;
#X connect 21 0 18 0;
#X connect 22 0 24 0;
#X connect 23 0 15 0;
#X connect 24 0 4 0;
#X connect 24 0 23 1;
#X connect 25 0 3 0;
#X connect 26 0 27 0;
#X connect 26 0 30 0;
#X connect 28 0 31 1;
#X connect 29 0 28 0;
#X connect 30 0 32 0;
#X connect 30 1 29 0;
#X connect 31 0 33 0;
#X connect 32 0 31 0;
#X connect 33 0 0 0;
#X connect 34 0 26 0;
#X connect 35 0 34 0;
#X connect 36 0 34 0;
#X restore 310 82 pd loadsample and write times in coll;
#X obj 523 338 hradio 15 1 0 7 empty empty empty 0 -8 0 10 -262144
-1 -1 3;
#N canvas 627 217 450 384 hierarshifht-1 0;
#X obj 148 128 coll \$0-data;
#C restore;
#X obj 148 150 list split 1;
#X obj 186 176 moses;
#X obj 234 159 + 1;
#X msg 192 31 32;
#X obj 109 68 until;
#X obj 109 88 f;
#X obj 141 86 + 1;
#X obj 109 44 t f b;
#X msg 150 63 0;
#X msg 186 200 0;
#X obj 282 61 t b f;
#X obj 109 290 coll \$0-data;
#C restore;
#X obj 284 33 inlet;
#X obj 187 229 f;
#X obj 109 236 list;
#X obj 109 107 t f f f;
#X msg 109 264 nsub \$1 4 \$2;
#X connect 0 0 1 0;
#X connect 1 0 2 0;
#X connect 2 0 10 0;
#X connect 2 1 14 0;
#X connect 3 0 2 1;
#X connect 4 0 8 0;
#X connect 5 0 6 0;
#X connect 6 0 7 0;
#X connect 6 0 16 0;
#X connect 7 0 6 1;
#X connect 8 0 5 0;
#X connect 8 1 9 0;
#X connect 9 0 6 1;
#X connect 10 0 14 0;
#X connect 11 0 4 0;
#X connect 11 1 3 0;
#X connect 13 0 11 0;
#X connect 14 0 15 1;
#X connect 15 0 17 0;
#X connect 16 0 15 0;
#X connect 16 2 0 0;
#X connect 17 0 12 0;
#X restore 390 414 pd hierarshifht-1;
#X text 497 412 Perform a hierarchy transform;
#X obj 82 288 f;
#X obj 107 288 + 1;
#X obj 48 180 tgl 15 0 empty empty empty 17 7 0 10 -262144 -1 -1 0
1;
#X obj 45 232 t f f;
#X msg 45 271 0;
#X obj 45 252 sel 0;
#X obj 82 345 coll \$0-data;
#C restore;
#X obj 82 383 unpack f f f f;
#X obj 109 405 == 0;
#X obj 109 426 sel 0 1;
#X msg 82 364 \$1 \$4 \$2 \$3;
#X obj 82 252 metro 230;
#X obj 143 193 / 44.1;
#X obj 134 466 sel 0;
#N canvas 35 342 450 300 select 0;
#X obj 71 25 inlet;
#X text 68 9 bang;
#X obj 292 25 inlet;
#X text 289 9 list;
#X obj 163 78 list length;
#X obj 130 98 random;
#X obj 291 45 t a a;
#X obj 130 198 packel;
#X obj 130 179 list;
#X obj 130 136 t b f;
#X msg 130 79 bang;
#X obj 130 117 + 1;
#X obj 130 217 f;
#X obj 130 238 outlet;
#X connect 0 0 10 0;
#X connect 2 0 6 0;
#X connect 4 0 5 1;
#X connect 5 0 11 0;
#X connect 6 0 4 0;
#X connect 6 1 8 1;
#X connect 7 0 12 0;
#X connect 8 0 7 0;
#X connect 9 0 8 0;
#X connect 9 1 7 1;
#X connect 10 0 5 0;
#X connect 11 0 9 0;
#X connect 12 0 13 0;
#X restore 134 504 pd select randomly from list;
#X msg 134 485 bang;
#X text 139 403 <- check if the hierachy is 0;
#X obj 82 326 t f f;
#X obj 109 519 f;
#X msg 167 485 bang;
#X obj 185 267 hsl 128 15 0 1 0 0 empty empty empty -2 -8 0 10 -262144
-1 -1 0 1;
#X obj 153 166 r \$0-sixteenth;
#X text 178 251 control the random rule;
#N canvas 1119 325 627 436 player 0;
#X obj 99 241 phasor~;
#X obj 50 140 r \$0-sixteenth;
#X obj 50 198 /;
#X msg 50 179 44100;
#X obj 50 160 t b f;
#X msg 197 173 0;
#X obj 99 317 tabread4~ \$0-sample;
#X obj 169 243 r \$0-sixteenth;
#X obj 99 260 *~;
#X obj 193 262 r \$0-sixteenth;
#X obj 99 298 +~;
#X obj 178 281 *;
#X obj 222 383 *~;
#N canvas 668 247 450 300 make 0;
#X obj 72 77 inlet;
#X obj 144 61 / 44.1;
#X obj 144 80 int;
#X obj 144 99 - 2;
#X obj 117 119 delay;
#X obj 77 156 line~;
#X msg 117 138 0 2;
#X msg 72 127 1 1;
#X obj 72 100 t b b;
#X obj 80 205 outlet~;
#X obj 144 41 inlet;
#X connect 0 0 8 0;
#X connect 1 0 2 0;
#X connect 2 0 3 0;
#X connect 3 0 4 1;
#X connect 4 0 6 0;
#X connect 5 0 9 0;
#X connect 6 0 5 0;
#X connect 7 0 5 0;
#X connect 8 0 7 0;
#X connect 8 1 4 0;
#X connect 10 0 1 0;
#X restore 326 304 pd make envelope;
#X obj 323 219 r \$0-sixteenth;
#X obj 178 141 t f b b;
#X obj 99 279 *~;
#X obj 338 139 hsl 128 15 0.5 2 0 1 empty empty empty -2 -8 0 10 -262144
-1 -1 0 1;
#X obj 419 247 f;
#X obj 419 266 /;
#X obj 419 178 t b f;
#X obj 419 285 clip 0 1;
#X obj 464 266 r \$0-sixteenth;
#X text 370 122 pitch;
#X msg 304 118 1;
#X obj 178 46 inlet indice del fragmento;
#X obj 335 76 inlet pitch;
#X obj 221 413 outlet~;
#X connect 0 0 8 0;
#X connect 1 0 4 0;
#X connect 2 0 0 0;
#X connect 3 0 2 0;
#X connect 4 0 3 0;
#X connect 4 1 2 1;
#X connect 5 0 0 1;
#X connect 6 0 12 0;
#X connect 7 0 8 1;
#X connect 8 0 16 0;
#X connect 9 0 11 1;
#X connect 10 0 6 0;
#X connect 11 0 10 1;
#X connect 12 0 27 0;
#X connect 13 0 12 1;
#X connect 14 0 18 0;
#X connect 15 0 11 0;
#X connect 15 1 5 0;
#X connect 15 2 13 0;
#X connect 16 0 10 0;
#X connect 17 0 16 1;
#X connect 17 0 20 0;
#X connect 18 0 19 0;
#X connect 19 0 21 0;
#X connect 20 0 18 0;
#X connect 20 1 19 1;
#X connect 21 0 13 1;
#X connect 22 0 21 2;
#X connect 24 0 17 0;
#X connect 25 0 15 0;
#X connect 26 0 17 0;
#X restore 134 553 pd player;
#X obj 188 536 hsl 128 15 0.125 1 0 0 empty empty pitch -2 -8 0 10
-262144 -1 -1 0 1;
#X obj 149 622 dac~;
#X obj 363 395 t b f;
#X text 363 450 make a list with elements without hierarchy;
#N canvas 530 221 450 327 make 0;
#X obj 162 154 coll \$0-data;
#C restore;
#X obj 162 174 list split 3;
#X msg 210 58 32;
#X obj 210 96 until;
#X obj 210 116 f;
#X obj 242 114 + 1;
#X obj 210 77 t f b;
#X msg 254 85 0;
#X obj 210 135 t f f;
#X obj 196 231 sel 1;
#X obj 242 250 f;
#N canvas 391 285 450 300 makelist 0;
#X obj 77 38 list;
#X obj 100 65 list;
#X obj 56 159 list;
#X obj 77 10 inlet;
#X obj 29 18 inlet;
#X obj 63 195 outlet;
#X msg 161 42 bang;
#X obj 29 85 t b b;
#X connect 0 0 1 0;
#X connect 0 0 2 1;
#X connect 1 0 0 1;
#X connect 2 0 5 0;
#X connect 3 0 0 0;
#X connect 4 0 7 0;
#X connect 6 0 0 1;
#X connect 6 0 2 1;
#X connect 7 0 6 0;
#X connect 7 1 2 0;
#X restore 179 269 pd makelist;
#X msg 123 186 bang;
#X obj 196 193 f;
#X obj 196 212 == 0;
#X obj 123 37 t b b;
#X obj 123 13 inlet;
#X obj 169 290 outlet;
#X connect 0 0 1 0;
#X connect 1 1 13 0;
#X connect 2 0 6 0;
#X connect 3 0 4 0;
#X connect 4 0 5 0;
#X connect 4 0 8 0;
#X connect 5 0 4 1;
#X connect 6 0 3 0;
#X connect 6 1 7 0;
#X connect 7 0 4 1;
#X connect 8 0 0 0;
#X connect 8 1 10 1;
#X connect 9 0 10 0;
#X connect 10 0 11 1;
#X connect 11 0 17 0;
#X connect 12 0 11 0;
#X connect 13 0 14 0;
#X connect 14 0 9 0;
#X connect 15 0 12 0;
#X connect 15 1 2 0;
#X connect 16 0 15 0;
#X restore 363 433 pd make a list with elements without hierarchy;
#X obj 197 291 list length;
#X obj 134 447 random;
#X obj 182 329 *;
#X obj 182 348 int;
#X obj 182 367 -;
#X obj 197 310 t f f;
#X obj 182 386 abs;
#X obj 310 39 t a b;
#X msg 183 14 lamont;
#X msg 228 14 amen1;
#X msg 267 13 afrique2;
#X msg 324 15 afrique1;
#X msg 383 15 magnolias;
#X msg 456 16 willie1;
#X msg 523 20 augustine;
#X obj 310 102 s \$0-sixteenth;
#X obj 320 126 grid grid1 200 0 1 200 0 7 1 0.01 1 1 7 382 223;
#X obj 146 530 bng 15 250 50 0 empty empty empty 17 7 0 10 -262144
-1 -1;
#X floatatom 258 321 5 0 0 0 - - -;
#X floatatom 221 376 5 0 0 0 - - -;
#X obj 330 334 pow 0.3;
#X obj 83 307 % 16;
#X floatatom 335 366 5 0 0 0 - - -;
#X obj 569 282 r pulp_numaffected;
#X obj 566 308 * 7;
#X obj 381 331 r pulp_intensity;
#X obj 129 -69 t b b;
#X obj 259 -19 del 1000;
#X obj 106 40 del 1500;
#X obj 582 228 t b;
#X obj 585 174 r \$0-refresh;
#X obj 601 101 s \$0-refresh;
#X obj 468 103 t b;
#X obj 600 74 del 500;
#X floatatom 138 229 5 0 0 0 - - -;
#X obj -75 49 r pulp_tempo;
#X obj -217 46 r pulp_beat;
#X obj -59 97 t b f;
#X obj -84 150 / 1;
#X msg -85 123 60;
#X text -59 149 seconds per beat;
#X obj -82 176 / 4;
#X obj -79 195 * 1000;
#X floatatom -114 72 5 0 0 0 - - -;
#X floatatom -106 222 5 0 0 0 - - -;
#X obj -66 223 * 2;
#X obj -167 270 / 2;
#X obj -132 361 change;
#X obj -138 291 i;
#X text -199 6 beat in tatum;
#X obj 754 -2 r pulp_test;
#X obj 754 26 stdout;
#X floatatom 816 52 5 0 0 0 - - -;
#X obj -37 1 r pulp_here;
#X obj 120 -116 r pulp_here;
#X obj 200 -73 bng 15 250 50 0 empty empty empty 17 7 0 10 -262144
-1 -1;
#X msg 473 -53 hereee;
#X obj 321 -99 r pulp_file;
#X obj 335 -46 openpanel;
#X obj 312 -71 r openFile;
#X obj 301 -49 sel 1;
#X connect 2 0 50 0;
#X connect 2 0 67 0;
#X connect 3 0 32 0;
#X connect 6 0 7 0;
#X connect 6 0 56 0;
#X connect 7 0 6 1;
#X connect 8 0 9 0;
#X connect 9 0 11 0;
#X connect 9 1 17 0;
#X connect 10 0 6 1;
#X connect 11 0 10 0;
#X connect 12 0 16 0;
#X connect 13 1 14 0;
#X connect 14 0 15 0;
#X connect 15 0 24 0;
#X connect 15 1 36 0;
#X connect 16 0 13 0;
#X connect 17 0 6 0;
#X connect 18 0 69 0;
#X connect 19 0 21 0;
#X connect 19 1 25 0;
#X connect 20 0 29 0;
#X connect 20 0 52 0;
#X connect 21 0 20 0;
#X connect 23 0 12 0;
#X connect 23 1 24 1;
#X connect 24 0 29 0;
#X connect 25 0 24 0;
#X connect 26 0 37 0;
#X connect 27 0 18 0;
#X connect 29 0 31 1;
#X connect 29 0 31 0;
#X connect 30 0 29 1;
#X connect 32 0 34 0;
#X connect 32 1 4 0;
#X connect 34 0 20 1;
#X connect 34 0 35 0;
#X connect 35 0 40 0;
#X connect 35 0 53 0;
#X connect 36 0 19 0;
#X connect 37 0 38 0;
#X connect 38 0 39 0;
#X connect 39 0 41 0;
#X connect 40 0 37 1;
#X connect 40 1 39 1;
#X connect 41 0 36 1;
#X connect 41 0 54 0;
#X connect 42 0 2 0;
#X connect 42 1 1 0;
#X connect 43 0 42 0;
#X connect 44 0 42 0;
#X connect 45 0 42 0;
#X connect 46 0 42 0;
#X connect 47 0 42 0;
#X connect 48 0 42 0;
#X connect 49 0 42 0;
#X connect 51 0 55 0;
#X connect 51 1 3 0;
#X connect 55 0 26 0;
#X connect 55 0 57 0;
#X connect 56 0 23 0;
#X connect 58 0 59 0;
#X connect 59 0 3 0;
#X connect 60 0 55 0;
#X connect 61 0 62 0;
#X connect 61 1 63 0;
#X connect 62 0 44 0;
#X connect 63 0 8 0;
#X connect 65 0 3 0;
#X connect 65 0 55 0;
#X connect 67 0 68 0;
#X connect 68 0 66 0;
#X connect 69 0 17 1;
#X connect 70 0 72 0;
#X connect 71 0 81 0;
#X connect 72 0 74 0;
#X connect 72 1 73 1;
#X connect 73 0 76 0;
#X connect 74 0 73 0;
#X connect 76 0 77 0;
#X connect 77 0 79 0;
#X connect 77 0 80 0;
#X connect 78 0 72 0;
#X connect 81 0 83 0;
#X connect 82 0 56 0;
#X connect 83 0 82 0;
#X connect 85 0 86 0;
#X connect 85 0 87 0;
#X connect 89 0 61 0;
#X connect 89 0 91 0;
#X connect 90 0 61 0;
#X connect 91 0 86 0;
#X connect 93 0 86 0;
#X connect 94 0 95 0;
#X connect 95 0 93 0;
