#N canvas 759 22 1378 774 10;
#X obj 149 622 dac~;
#X obj 441 -58 r pulp_load;
#X obj 560 141 stdout;
#X obj 652 67 print GG;
#X obj 284 591 adc~;
#X obj 58 311 midiout;
#X obj 167 278 noteout;
#X obj 160 251 makenote 64 200;
#X msg 161 183 65;
#X obj 142 10 loadbang;
#X obj 114 52 r pulp_tst;
#X obj 78 132 * 127;
#X obj 74 85 change;
#X floatatom 336 244 0 0 0 0 - - -;
#X obj 322 208 r Param2;
#X obj 336 271 ctlout 7 4;
#X obj 496 193 coll;
#C restore;
#X connect 1 0 3 0;
#X connect 1 0 2 0;
#X connect 4 0 0 0;
#X connect 4 1 0 1;
#X connect 7 0 6 0;
#X connect 7 1 6 1;
#X connect 8 0 7 0;
#X connect 10 0 12 0;
#X connect 11 0 7 0;
#X connect 12 0 11 0;
#X connect 13 0 15 0;
