#N canvas 0 22 450 300 10;
#X obj 148 100 adc~;
#X obj 161 219 dac~;
#X obj 181 177 osc~ 440;
#X obj 182 133 r param;
#X obj 183 157 + 100;
#X obj 300 133 notein;
#X obj 236 184 stdout;
#X obj 310 186 noteout;
#X connect 0 0 1 0;
#X connect 2 0 1 1;
#X connect 3 0 4 0;
#X connect 3 0 6 0;
#X connect 4 0 2 0;
#X connect 5 0 6 0;
#X connect 5 0 7 0;
#X connect 5 1 7 1;
#X connect 5 2 7 2;
