#N canvas 446 81 450 300 10;
#X obj -20 160 dac~;
#X obj 120 75 nbx 5 14 -1e+37 1e+37 0 0 empty empty empty 0 -8 0 10
-262144 -1 -1 0 256;
#X obj 4 113 *~ 1;
#X obj -8 68 + 200;
#X obj 4 95 osc~ 200;
#X obj -34 13 r \$0-param2;
#X connect 2 0 0 1;
#X connect 2 0 0 0;
#X connect 3 0 4 0;
#X connect 4 0 2 0;
#X connect 5 0 1 0;
#X connect 5 0 3 0;
