#N canvas 0 22 450 300 10;
#X obj 148 100 adc~;
#X obj 172 237 dac~;
#X obj 172 150 osc~ 440;
#X obj 219 126 + 100;
#X obj 300 133 notein;
#X obj 360 185 stdout;
#X obj 310 186 noteout;
#X obj 237 171 r param11;
#X obj 217 93 r param10;
#X obj 213 196 *~ 1;
#X connect 2 0 9 0;
#X connect 3 0 2 0;
#X connect 4 0 5 0;
#X connect 4 0 6 0;
#X connect 4 1 6 1;
#X connect 4 2 6 2;
#X connect 7 0 9 1;
#X connect 8 0 3 0;
#X connect 9 0 1 0;
